<svg xmlns="http://www.w3.org/2000/svg" viewBox="0 0 448 512" fill="#a1adb8"><!--! Font Awesome Free 6.4.2 by @fontawesome - https://fontawesome.com License - https://fontawesome.com/license/free (Icons: CC BY 4.0, Fonts: SIL OFL 1.1, Code: MIT License) Copyright 2023 Fonticons, Inc. --><path d="M0 72C0 49.9 17.9 32 40 32H88c22.1 0 40 17.9 40 40V120c0 22.1-17.9 40-40 40H40c-22.1 0-40-17.9-40-40V72zm160 0c0-22.1 17.9-40 40-40h48c22.1 0 40 17.9 40 40v48c0 22.1-17.9 40-40 40H200c-22.1 0-40-17.9-40-40V72zM352 32h48c22.1 0 40 17.9 40 40v48c0 22.1-17.9 40-40 40H352c-22.1 0-40-17.9-40-40V72c0-22.1 17.9-40 40-40zM0 232c0-22.1 17.9-40 40-40H88c22.1 0 40 17.9 40 40v48c0 22.1-17.9 40-40 40H40c-22.1 0-40-17.9-40-40V232zm160 0c0-22.1 17.9-40 40-40h48c22.1 0 40 17.9 40 40v48c0 22.1-17.9 40-40 40H200c-22.1 0-40-17.9-40-40V232zM352 192h48c22.1 0 40 17.9 40 40v48c0 22.1-17.9 40-40 40H352c-22.1 0-40-17.9-40-40V232c0-22.1 17.9-40 40-40zM0 392c0-22.1 17.9-40 40-40H88c22.1 0 40 17.9 40 40v48c0 22.1-17.9 40-40 40H40c-22.1 0-40-17.9-40-40V392zm160 0c0-22.1 17.9-40 40-40h48c22.1 0 40 17.9 40 40v48c0 22.1-17.9 40-40 40H200c-22.1 0-40-17.9-40-40V392zM352 352h48c22.1 0 40 17.9 40 40v48c0 22.1-17.9 40-40 40H352c-22.1 0-40-17.9-40-40V392c0-22.1 17.9-40 40-40z"/></svg>
