<svg id="Layer_1" data-name="Layer 1" xmlns="http://www.w3.org/2000/svg" viewBox="0 0 16 18"><defs><style>.cls-1{fill:#a3adb8;}</style></defs><polygon class="cls-1" points="6.14 0.28 6.51 0.56 6.52 0 6.14 0.28"/><polygon class="cls-1" points="6.52 0 7.24 0.23 9.45 3.11 9.72 3.81 10.04 3.87 10.99 4.89 11.16 5.59 7.69 2.92 6.72 1.71 6.52 0"/><polygon class="cls-1" points="6.14 0.28 6.51 0.65 6.59 1.72 5.62 4.47 4.74 3.78 6.14 0.28"/><polygon class="cls-1" points="4.74 3.78 5.58 4.6 6.37 12.96 5.2 14.01 4.63 5.89 4.74 3.78"/><polygon class="cls-1" points="5.2 14.01 6.43 13.07 6.72 13.3 8.02 15.25 8.07 16.23 7.78 16.14 8.09 16.68 8.2 18 5.46 14.87 5.2 14.01"/><polygon class="cls-1" points="8.17 15.23 8.2 16.23 9.11 15.83 8.22 16.68 8.2 18 8.92 17.52 11.14 13.98 11.37 11.71 8.17 15.23"/><polygon class="cls-1" points="6.67 1.89 5.7 4.57 6.47 12.9 6.75 13.14 7.55 3 6.67 1.89"/><polygon class="cls-1" points="7.69 3.13 11.16 5.59 11.34 11.77 8.08 15.06 6.89 13.26 7.69 3.13"/></svg>