<svg viewBox="-40 -40 80 80" stroke-linecap="round" stroke="black" fill="white" xmlns="http://www.w3.org/2000/svg">
  <circle r="8000" fill="#dedede" stroke="none"/>
  <circle r="38" stroke-width="0.4"/>
  <text y="10%" dominant-baseline="middle" text-anchor="middle" font-weight="1" font-size="10px">{{self.height}}</text>
  <line y1="-32" y2="-30" stroke-width="0.6" stroke="#d00505"/>
  <line y1="-32" y2="-30" stroke-width="0.6" transform="rotate(10.90909090909091)"/>
  <line y1="-32" y2="-30" stroke-width="0.6" transform="rotate(21.81818181818182)"/>
  <line y1="-32" y2="-30" stroke-width="0.6" transform="rotate(32.72727272727273)"/>
  <line y1="-32" y2="-30" stroke-width="0.6" transform="rotate(43.63636363636364)"/>
  <line y1="-32" y2="-30" stroke-width="0.6" transform="rotate(54.54545454545455)"/>
  <line y1="-32" y2="-30" stroke-width="1.0" transform="rotate(65.45454545454545)"/>
  <line y1="-32" y2="-30" stroke-width="0.6" transform="rotate(76.36363636363636)"/>
  <line y1="-32" y2="-30" stroke-width="0.6" transform="rotate(87.27272727272728)"/>
  <line y1="-32" y2="-30" stroke-width="0.6" transform="rotate(98.18181818181817)"/>
  <line y1="-32" y2="-30" stroke-width="0.6" transform="rotate(109.0909090909091)"/>
  <line y1="-32" y2="-30" stroke-width="0.6" transform="rotate(120.0)"/>
  <line y1="-32" y2="-30" stroke-width="1.0" transform="rotate(130.9090909090909)"/>
  <line y1="-32" y2="-30" stroke-width="0.6" transform="rotate(141.8181818181818)"/>
  <line y1="-32" y2="-30" stroke-width="0.6" transform="rotate(152.72727272727272)"/>
  <line y1="-32" y2="-30" stroke-width="0.6" transform="rotate(163.63636363636363)"/>
  <line y1="-32" y2="-30" stroke-width="0.6" transform="rotate(174.54545454545456)"/>
  <line y1="-32" y2="-30" stroke-width="0.6" transform="rotate(185.45454545454544)"/>
  <line y1="-32" y2="-30" stroke-width="1.0" transform="rotate(196.36363636363635)"/>
  <line y1="-32" y2="-30" stroke-width="0.6" transform="rotate(207.27272727272728)"/>
  <line y1="-32" y2="-30" stroke-width="0.6" transform="rotate(218.1818181818182)"/>
  <line y1="-32" y2="-30" stroke-width="0.6" transform="rotate(229.0909090909091)"/>
  <line y1="-32" y2="-30" stroke-width="0.6" transform="rotate(240.0)"/>
  <line y1="-32" y2="-30" stroke-width="0.6" transform="rotate(250.90909090909093)"/>
  <line y1="-32" y2="-30" stroke-width="1.0" transform="rotate(261.8181818181818)"/>
  <line y1="-32" y2="-30" stroke-width="0.6" transform="rotate(272.72727272727275)"/>
  <line y1="-32" y2="-30" stroke-width="0.6" transform="rotate(283.6363636363636)"/>
  <line y1="-32" y2="-30" stroke-width="0.6" transform="rotate(294.54545454545456)"/>
  <line y1="-32" y2="-30" stroke-width="0.6" transform="rotate(305.45454545454544)"/>
  <line y1="-32" y2="-30" stroke-width="0.6" transform="rotate(316.3636363636364)"/>
  <line y1="-32" y2="-30" stroke-width="1.0" transform="rotate(327.27272727272725)"/>
  <line y1="-32" y2="-30" stroke-width="0.6" transform="rotate(338.1818181818182)"/>
  <line y1="-32" y2="-30" stroke-width="0.6" transform="rotate(349.0909090909091)"/>
  <line y2="-18" transform="rotate({{self.hour}})"/>
  <line y2="-26" stroke-width="1.2" transform="rotate({{self.minute}})"/>
  <line y2="-32" stroke="#d00505" stroke-width="0.4" transform="rotate({{self.second}})"/>
  <circle r="1.4" stroke="#d00505" stroke-width="0.6"/>
</svg>
